<svg xmlns="http://www.w3.org/2000/svg" width="400" height="200" viewBox="0 0 400 200">
  <defs>
    <linearGradient id="bg" x1="0%" y1="0%" x2="100%" y2="100%">
      <stop offset="0%" style="stop-color:#0B4A4A"/>
      <stop offset="100%" style="stop-color:#0D7272"/>
    </linearGradient>
  </defs>
  <rect width="400" height="200" fill="url(#bg)"/>
  <!-- engineering drawing / document -->
  <rect x="60" y="40" width="140" height="110" rx="4" fill="rgba(255,255,255,0.12)" stroke="rgba(255,255,255,0.3)" stroke-width="1.5"/>
  <!-- title block -->
  <rect x="60" y="122" width="140" height="28" rx="0" fill="rgba(255,255,255,0.08)" stroke="rgba(255,255,255,0.2)" stroke-width="1"/>
  <line x1="60" y1="138" x2="200" y2="138" stroke="rgba(255,255,255,0.15)" stroke-width="1"/>
  <line x1="130" y1="122" x2="130" y2="150" stroke="rgba(255,255,255,0.15)" stroke-width="1"/>
  <!-- valve schematic lines -->
  <line x1="80" y1="85" x2="180" y2="85" stroke="rgba(200,151,58,0.7)" stroke-width="2"/>
  <rect x="110" y="68" width="40" height="34" rx="2" fill="none" stroke="rgba(200,151,58,0.9)" stroke-width="2"/>
  <line x1="130" y1="55" x2="130" y2="68" stroke="rgba(200,151,58,0.7)" stroke-width="2"/>
  <line x1="118" y1="55" x2="142" y2="55" stroke="rgba(200,151,58,0.7)" stroke-width="2"/>
  <!-- dimension lines -->
  <line x1="80" y1="57" x2="80" y2="113" stroke="rgba(255,255,255,0.3)" stroke-width="1" stroke-dasharray="3,2"/>
  <line x1="180" y1="57" x2="180" y2="113" stroke="rgba(255,255,255,0.3)" stroke-width="1" stroke-dasharray="3,2"/>
  <!-- checklist -->
  <rect x="230" y="44" width="130" height="106" rx="6" fill="rgba(255,255,255,0.08)" stroke="rgba(255,255,255,0.2)" stroke-width="1.5"/>
  <rect x="242" y="58" width="10" height="10" rx="2" fill="rgba(200,151,58,0.8)"/>
  <rect x="242" y="76" width="10" height="10" rx="2" fill="rgba(200,151,58,0.8)"/>
  <rect x="242" y="94" width="10" height="10" rx="2" fill="rgba(255,255,255,0.2)"/>
  <rect x="242" y="112" width="10" height="10" rx="2" fill="rgba(255,255,255,0.2)"/>
  <line x1="258" y1="63" x2="348" y2="63" stroke="rgba(255,255,255,0.3)" stroke-width="1.5"/>
  <line x1="258" y1="81" x2="348" y2="81" stroke="rgba(255,255,255,0.3)" stroke-width="1.5"/>
  <line x1="258" y1="99" x2="340" y2="99" stroke="rgba(255,255,255,0.2)" stroke-width="1.5"/>
  <line x1="258" y1="117" x2="334" y2="117" stroke="rgba(255,255,255,0.2)" stroke-width="1.5"/>
  <!-- check marks -->
  <polyline points="244,63 247,66 252,60" fill="none" stroke="white" stroke-width="1.5"/>
  <polyline points="244,81 247,84 252,78" fill="none" stroke="white" stroke-width="1.5"/>
  <!-- label -->
  <text x="200" y="178" text-anchor="middle" fill="rgba(255,255,255,0.5)" font-size="11" font-family="Inter,Arial,sans-serif">Replace → images/p5-consult.jpg</text>
</svg>
